<?xml version="1.0" encoding="UTF-8"?><svg id="New_Logo" xmlns="http://www.w3.org/2000/svg" xmlns:xlink="http://www.w3.org/1999/xlink" viewBox="0 0 512 512"><defs><linearGradient id="Brick_6" x1="108.41" y1="268.52" x2="332.5" y2="268.52" gradientUnits="userSpaceOnUse"><stop offset="0" stop-color="#efebe7"/><stop offset=".49" stop-color="#e9e4db"/><stop offset="1" stop-color="#c9cacc"/></linearGradient><linearGradient id="Brick_2" x1="107.91" y1="268.52" x2="333" y2="268.52" gradientUnits="userSpaceOnUse"><stop offset="0" stop-color="#efebe7"/><stop offset=".49" stop-color="#e9e4db"/><stop offset="1" stop-color="#c9cacc"/></linearGradient><linearGradient id="Brick_6-2" x1="375.9" y1="118.37" x2="415.21" y2="118.37" xlink:href="#Brick_6"/><linearGradient id="Brick_2-2" x1="374.75" y1="118.38" x2="416.34" y2="118.38" xlink:href="#Brick_2"/><linearGradient id="Brick_6-3" x1="170.85" y1="268.75" x2="270.92" y2="268.75" xlink:href="#Brick_6"/></defs><path d="M88.72,490.6c-4.4,0-8.7-1.33-12.43-3.85-7.89-5.33-11.05-14.8-8.24-24.72l7.17-25.32c-25.99-10.84-43.18-35.18-43.21-61.87l-.28-207.36c-.02-18.01,6.8-36.05,18.71-49.49,12.53-14.13,29.25-21.94,47.08-21.99l210.65-.54c6.06,0,10.67,3.95,11.51,9.82.47,3.34-.48,6.8-2.54,9.25-1.88,2.23-4.53,3.46-7.47,3.46l-212.37.56c-25.96.07-43.35,25.08-43.3,48.4l.44,209.05c.05,22.9,18.92,39.18,37.54,43.44,2.81.64,5.14,2.33,6.58,4.75,1.49,2.52,1.87,5.64,1.05,8.56l-10.12,35.75,57.84-45.68c2.36-1.87,5.08-2.82,8.08-2.83l192.83-.7c22.72-.09,39.73-23.69,39.76-44.73l.24-165.7c0-6.6,4.38-11.38,10.4-11.38,6.01.01,10.36,4.84,10.36,11.47l-.06,164.61c0,16.91-6.81,33.94-18.67,46.71-12.36,13.32-28.61,20.68-45.74,20.73l-186.41.49-56.24,44.5c-3.81,3.02-8.36,4.61-13.16,4.61Z" fill="#f7941d"/><path d="M447.81,217.66l-6.25-18.6c-1.12-3.33-4.04-6.6-7.43-7.75l-18.58-6.29,17.85-5.97c3.95-1.32,7.23-4.36,8.5-8.36l5.79-18.21,6.1,18.41c1.04,3.13,3.86,6.46,7.01,7.53l19.35,6.54-18.35,6.32c-3.67,1.27-6.71,4.5-7.93,8.16l-6.06,18.24Z" fill="#f7941d"/><path d="M336.59,86.14l-6.35-19.21c-1.8-3.29-4.17-5.6-7.5-7.35l-18.21-6.02,17.95-6.02c3.59-1.21,6.78-4.37,7.97-7.98l6.11-18.57,6.26,19.05c1.76,3.38,4.08,5.71,7.49,7.4l18.61,6.07-17.2,5.78c-4.58,1.54-7.69,4.65-9.35,9.07l-5.79,17.78Z" fill="#f7941d"/><path d="M234.45,379.5l-28.12.05-3.78-21.51c-.29-1.66-1.89-3.88-3.47-4.32-8.47-2.38-15.92-5.44-23.44-9.89-2.1-1.24-4.73-1.17-6.74.22l-17.98,12.54-19.73-19.83,12.87-18.38c1.18-1.69,1.27-4.57.18-6.42-3.97-6.75-6.78-13.5-8.76-21.05-.7-2.68-2.44-4.54-5.19-5.01l-21.8-3.71-.09-27.34,22.34-3.85c1.84-.32,3.91-1.86,4.39-3.65,2.09-7.8,4.76-14.82,8.83-21.69,1.42-2.4,1.47-5.12-.17-7.45l-12.67-18.01,19.84-19.77,17.19,12.06c2.3,1.62,5.01,2.13,7.55.66,7.21-4.18,14.57-7.28,22.71-9.39,2.45-.64,3.89-2.67,4.3-5.12l3.51-21.14,28.22.02,3.7,21.77c.34,1.98,2.35,3.9,4.26,4.41,8.04,2.14,15.12,5.21,22.26,9.32,2.18,1.26,4.92,1.25,7.03-.07l18.16-12.51,19.65,19.8-12.89,18.29c-1.22,1.73-1.33,4.88-.05,6.61,4.35,5.89,7.62,12.5,8.45,19.77.43,3.85,2.44,5.71,5.77,6.27l21.7,3.63-.09,27.42-22.47,3.71c-1.98.33-3.94,2.24-4.44,4.17-2.07,8.13-4.95,15.17-9.16,22.38-.8,1.37-.76,4.17.11,5.44l13.13,18.94-19.68,19.67-17.96-12.43c-2.1-1.45-4.84-1.53-7.04-.23-7.41,4.38-14.75,7.52-23.15,9.8-1.58.43-3.32,2.5-3.6,4.14l-3.71,21.66ZM273.74,301.46c18.13-28.86,9.15-66.48-18.71-84.74-27.95-18.31-65.59-11.41-85.11,16.27-20.35,28.84-12.35,68.61,16.85,87.72,28.98,18.96,68.04,10.88,86.97-19.25Z" fill="url(#Brick_6)" stroke="url(#Brick_2)" stroke-miterlimit="10"/><path d="M428.88,107.52c-12.92-4.39-18.41-9.71-22.74-22.55l-10.63-31.46-10.83,32.23c-1.68,5.01-4.46,9.35-7.42,13.71-4.59,3.3-9.29,6.08-14.67,7.92l-32.25,11.02,30.65,10.26c5.45,1.82,10.33,4.49,15.24,7.45,3.88,4.65,6.63,9.74,8.57,15.52l10.73,31.97,9.69-29.02c2.08-6.23,4.78-11.82,8.46-17.24,4.52-3.42,9.24-6.21,14.67-8.04l32.46-10.94-31.92-10.83Z" fill="#f7941d"/><path d="M395.53,137.95c-5.1-10.33-9.57-14.85-19.63-19.75,10.05-4.85,14.59-9.09,19.58-19.42,4.86,9.89,9.51,14.46,19.73,19.49-7.54,3.71-14.7,8.7-18.7,17.5l-.99,2.18Z" fill="url(#Brick_6-2)" stroke="url(#Brick_2-2)" stroke-miterlimit="10"/><path d="M199.49,313.83c-19.55-9.49-30.75-29.64-28.31-50.83,3.44-29.91,31.79-49.38,60.41-43.14,28.97,6.32,46.15,36.52,36.77,64.58s-41.4,42.72-68.86,29.39Z" fill="url(#Brick_6-3)"/><path d="M220.84,331.96c-12.3,0-24.28-3.58-34.64-10.37-14.49-9.48-24.26-24.09-27.51-41.14-3.23-16.93.46-34.01,10.38-48.07,11.88-16.84,31.27-26.9,51.84-26.9,12.34,0,24.33,3.58,34.69,10.37,13.79,9.03,23.4,22.9,27.05,39.03,3.69,16.3.84,33.04-8.03,47.16-11.77,18.74-31.87,29.92-53.77,29.92ZM220.82,225.78c-21.61,0-39.78,16.21-42.25,37.71-2.09,18.15,7.39,35.14,24.14,43.28,5.78,2.81,11.91,4.23,18.22,4.23h0c18.28,0,34.49-11.76,40.35-29.27,3.8-11.37,2.56-23.9-3.39-34.38-5.97-10.51-16.14-18.01-27.9-20.57-3.02-.66-6.11-.99-9.17-.99Z" fill="#f7941d"/><path d="M201.91,397c-5.62-.1-10.06-3.85-11.04-9.43l-3.44-19.52c-5.21-1.98-9.56-3.82-13.83-5.85l-16.44,11.24c-1.99,1.36-4.27,2.08-6.57,2.08-3.03,0-5.94-1.25-8.19-3.52l-26.47-26.68c-3.82-3.85-4.25-9.72-1.05-14.29l11.55-16.49c-1.97-4.26-3.6-8.27-5.16-12.72l-20.19-3.45c-5.28-.9-9.07-10.61-9.07-10.61l-.02-37.61c0-4.96,3.86-9.7,8.61-10.56l20.97-3.82c1.56-4.47,3.14-8.35,5.08-12.48l-11.87-17.06c-2.91-4.18-2.37-10.24,1.21-13.81l27.37-27.21c1.93-1.92,4.53-2.97,7.32-2.97,2.33,0,4.7.74,6.67,2.1l16.44,11.28c4.45-2.13,8.74-3.91,13.86-5.76l3.43-20.11c.88-5.15,5.37-8.75,10.91-8.75l38.02-.02c4.49,0,9.77,2.86,10.71,8.17l3.67,20.72c4.99,1.86,9.33,3.67,13.78,5.75l16.92-11.55c1.79-1.22,3.86-1.87,6-1.87,2.94,0,5.75,1.19,7.92,3.36l26.2,26.18c2.67,2.66,6.3,8.32.68,16.25l-10.71,15.12c2.01,4.26,3.68,8.34,5.22,12.69l20.51,3.61c5.19.91,9.1,5.52,9.1,10.71v37.59s-3.84,9.72-9.18,10.64l-20.44,3.52c-1.47,4.43-3.04,8.36-5.07,12.65l11.57,16.63c3.27,4.7,2.61,10.51-1.69,14.81l-26.2,26.26c-2.1,2.1-5.03,3.31-8.04,3.31-2.15,0-4.2-.62-5.9-1.79l-16.93-11.63-13.82,5.79-3.5,20.29c-.85,4.94-5.36,8.67-10.49,7.8l-38.38,1h0ZM173.05,338.49c2.04,0,4.02.54,5.74,1.55,6.86,4.05,13.91,7.02,22.2,9.35,3.63,1.02,6.38,4.95,6.94,8.16l3.07,17.45,19.91-.03,3.01-17.59c.61-3.58,3.74-7.1,7.12-8.01,7.86-2.13,14.82-5.08,21.92-9.28,1.73-1.02,3.74-1.57,5.81-1.57,2.35,0,4.58.68,6.45,1.98l14.61,10.11,13.91-13.9-10.8-15.57c-1.92-2.77-2.07-7.66-.32-10.66,3.95-6.76,6.69-13.47,8.63-21.1.98-3.86,4.5-7.13,8.35-7.77l18.39-3.04.06-19.14-17.59-2.94c-4.89-.82-8.23-3.8-9.41-8.41-1.81-7.05-4.56-13.69-8.41-20.29-1.97-3.37-1.75-8.33.5-11.52l10.52-14.93-13.89-14-14.88,10.25-.09.06c-1.82,1.14-3.94,1.74-6.12,1.74s-4.12-.55-5.91-1.58c-7.09-4.08-13.78-6.89-21.05-8.82-3.88-1.03-7.15-4.52-7.8-8.29l-3.01-17.7-19.97-.02-2.83,17.04c-.76,4.57-3.7,7.94-7.87,9.02-7.51,1.95-14.53,4.85-21.46,8.88-1.75,1.01-3.62,1.53-5.58,1.53-2.45,0-4.93-.83-7.18-2.41l-13.84-9.71-14.03,13.97,10.29,14.63c2.69,3.82,2.83,8.58.37,12.72-3.52,5.94-6.16,12.44-8.31,20.44-1.06,3.96-4.96,6.61-8.25,7.18l-18.27,3.15.06,19.1,17.74,3.02c4.54.77,7.85,3.89,9.07,8.57,1.86,7.11,4.47,13.4,8.23,19.79,2.06,3.5,1.89,8.41-.39,11.67l-10.52,15.01,13.95,14.02,14.62-10.19c1.82-1.27,3.99-1.94,6.29-1.94Z" fill="#f7941d"/></svg>