<?xml version="1.0" encoding="UTF-8"?><svg id="Layer_1" xmlns="http://www.w3.org/2000/svg" viewBox="0 0 467.13 468.47"><path d="M291.2,385.95c-6.22,0-11.91-1.27-16.92-3.77-4.86-2.43-9-5.8-12.33-10.01-2.62-3.31-5-7.49-7.47-13.14-1.77-4.05-3.33-7.7-4.62-10.84l-.1-.25-4.49-11.8h-51.47l-4.45,11.95c-4.48,12-8.2,19.64-12.07,24.78-4.5,5.97-13.11,13.08-28.59,13.08-10.11,0-19.43-3.79-26.95-10.97-7.79-7.42-11.91-16.7-11.91-26.82,0-4.67.75-9.45,2.24-14.2,1.05-3.36,2.65-7.7,4.9-13.26l49.77-126.36c1.25-3.22,5.1-13.04,5.1-13.04,2.55-6.51,5.29-11.92,8.39-16.54,4-5.96,9.26-10.81,15.65-14.43,6.71-3.8,14.6-5.72,23.47-5.72s16.89,1.92,23.59,5.71c6.32,3.58,11.54,8.32,15.51,14.09,3.05,4.43,5.66,9.24,7.74,14.29,1.62,3.94,3.65,9.11,6.04,15.38l50.75,125.35c5.17,12.42,7.48,21.2,7.48,28.45,0,9.85-3.98,19.04-11.5,26.56-7.53,7.53-17.13,11.5-27.76,11.5ZM219.83,266.53l-.58-1.59-.57,1.59h1.15Z" fill="#1a1a1a"/><path d="M340.12,385.95c-11.34,0-21.29-4.35-28.79-12.57-7.12-7.81-10.73-18.4-10.73-31.47v-153.4c0-13.07,3.59-23.64,10.66-31.4,7.46-8.18,17.43-12.51,28.86-12.51s21.55,4.24,29.04,12.27c7.23,7.75,10.89,18.39,10.89,31.64v153.4c0,13.2-3.64,23.84-10.81,31.62-7.49,8.12-17.56,12.42-29.11,12.42Z" fill="#1a1a1a"/><path d="M96.24,468.47c-40.53,0-73.5-32.97-73.5-73.5v-207.2c0-19.3,15.7-35,35-35h5c19.3,0,35,15.7,35,35v205.7h294.39V99.08h-205.7c-19.3,0-35-15.7-35-35v-5c0-19.3,15.7-35,35-35h207.2c40.53,0,73.5,32.97,73.5,73.5v297.39c0,40.53-32.97,73.5-73.5,73.5H96.24Z" fill="#1a1a1a"/><path d="M80.85,199.65l-1.15-18.78c-2.01-32.73-28.2-58.92-60.93-60.93l-18.78-1.15v-37.94l18.78-1.15c32.73-2.01,58.92-28.2,60.93-60.93l1.15-18.78h37.94l1.15,18.77c2.01,32.73,28.2,58.92,60.93,60.93l18.78,1.15v37.94l-18.77,1.15c-32.73,2.01-58.92,28.2-60.93,60.93l-1.15,18.77h-37.94Z" fill="#1a1a1a"/><path d="M131.16,339.92c-.89,2.83-1.33,5.58-1.33,8.23,0,4.6,1.9,8.72,5.71,12.35,3.81,3.63,8.19,5.45,13.15,5.45,5.84,0,10.05-1.71,12.62-5.11,2.57-3.41,5.67-9.98,9.3-19.72l9.3-24.97h79.16l9.3,24.44c1.24,3.01,2.72,6.49,4.45,10.43,1.73,3.94,3.34,6.86,4.85,8.77,1.5,1.91,3.36,3.41,5.58,4.52,2.21,1.11,4.87,1.66,7.97,1.66,5.31,0,9.85-1.88,13.61-5.64,3.76-3.76,5.64-7.9,5.64-12.42s-1.99-11.29-5.98-20.85l-50.87-125.64c-2.39-6.29-4.36-11.31-5.91-15.07-1.55-3.76-3.45-7.28-5.71-10.56-2.26-3.27-5.23-5.95-8.9-8.04-3.68-2.08-8.26-3.12-13.75-3.12s-9.94,1.04-13.61,3.12c-3.68,2.08-6.64,4.8-8.9,8.17-2.26,3.37-4.38,7.59-6.38,12.68-1.99,5.09-3.7,9.45-5.11,13.08l-49.8,126.44c-2.04,5.05-3.5,8.99-4.38,11.82ZM219.08,206.18l29.35,80.35h-58.17l28.82-80.35Z" fill="#fff"/><path d="M354.53,359.97c3.67-3.98,5.51-10,5.51-18.06v-153.4c0-8.06-1.84-14.06-5.51-18-3.67-3.94-8.48-5.91-14.41-5.91s-10.45,1.99-14.08,5.98-5.44,9.96-5.44,17.93v153.4c0,7.97,1.84,13.97,5.51,18s8.35,6.04,14.01,6.04,10.74-1.99,14.41-5.98Z" fill="#fff"/><path d="M393.63,44.08h-207.2c-8.28,0-15,6.72-15,15v5c0,8.28,6.72,15,15,15h207.2c10.2,0,18.5,8.3,18.5,18.5v297.39c0,10.2-8.3,18.5-18.5,18.5H96.24c-10.2,0-18.5-8.3-18.5-18.5v-207.2c0-8.28-6.72-15-15-15h-5c-8.28,0-15,6.72-15,15v207.2c0,29.5,24,53.5,53.5,53.5h297.39c29.5,0,53.5-24,53.5-53.5V97.58c0-29.5-24-53.5-53.5-53.5Z" fill="#fff"/><path d="M99.67,179.65h.32c2.63-42.86,36.8-77.04,79.67-79.67v-.32c-42.86-2.63-77.04-36.8-79.67-79.67h-.32c-2.63,42.86-36.8,77.04-79.67,79.67v.32c42.86,2.63,77.04,36.8,79.67,79.67Z" fill="#fff"/></svg>